<svg xmlns="http://www.w3.org/2000/svg" viewBox="0 0 820 620" font-family="'Space Grotesk','Helvetica Neue',Arial,sans-serif">
  <defs>
    <filter id="gtr" x="-50%" y="-50%" width="200%" height="200%">
      <feGaussianBlur stdDeviation="5" result="b"/><feMerge><feMergeNode in="b"/><feMergeNode in="SourceGraphic"/></feMerge>
    </filter>
    <marker id="atr" markerWidth="11" markerHeight="11" refX="7" refY="3.2" orient="auto"><path d="M0,0 L7.5,3.2 L0,6.4 Z" fill="#00d4ff"/></marker>
    <marker id="atrp" markerWidth="11" markerHeight="11" refX="7" refY="3.2" orient="auto"><path d="M0,0 L7.5,3.2 L0,6.4 Z" fill="#a78bfa"/></marker>
    <linearGradient id="ltr" x1="0" y1="0" x2="1" y2="0">
      <stop offset="0" stop-color="#00d4ff"/><stop offset="1" stop-color="#a78bfa"/>
    </linearGradient>
  </defs>

  <text x="410" y="50" text-anchor="middle" fill="rgba(240,244,255,.55)" font-size="16" letter-spacing="3">EVERY PROJECT COMPOUNDS THE LAST</text>

  <!-- KB / Second Brain (center hub) -->
  <rect x="290" y="248" width="240" height="116" rx="20" fill="rgba(167,139,250,.14)" stroke="#a78bfa" stroke-width="3" filter="url(#gtr)"/>
  <text x="410" y="294" text-anchor="middle" fill="#efe9ff" font-size="24" font-weight="700">KB / Second Brain</text>
  <text x="410" y="320" text-anchor="middle" fill="rgba(240,244,255,.6)" font-size="13">notes, patterns, gotchas</text>
  <text x="410" y="340" text-anchor="middle" fill="rgba(240,244,255,.45)" font-size="12.5">read &#8596; write</text>

  <!-- three project nodes across the bottom -->
  <rect x="60" y="448" width="200" height="92" rx="16" fill="rgba(0,212,255,.10)" stroke="#00d4ff" stroke-width="2.5" filter="url(#gtr)"/>
  <text x="160" y="488" text-anchor="middle" fill="#e9fbff" font-size="21" font-weight="700">Project A</text>
  <text x="160" y="514" text-anchor="middle" fill="rgba(240,244,255,.5)" font-size="13">first pass</text>

  <rect x="310" y="448" width="200" height="92" rx="16" fill="rgba(0,212,255,.10)" stroke="#00d4ff" stroke-width="2.5" filter="url(#gtr)"/>
  <text x="410" y="488" text-anchor="middle" fill="#e9fbff" font-size="21" font-weight="700">Project B</text>
  <text x="410" y="514" text-anchor="middle" fill="#7dd3fc" font-size="13" font-weight="600">&#8722;time</text>

  <rect x="560" y="448" width="200" height="92" rx="16" fill="rgba(0,212,255,.10)" stroke="#00d4ff" stroke-width="2.5" filter="url(#gtr)"/>
  <text x="660" y="488" text-anchor="middle" fill="#e9fbff" font-size="21" font-weight="700">Project C</text>
  <text x="660" y="514" text-anchor="middle" fill="#7dd3fc" font-size="13" font-weight="600">&#8722;&#8722;time</text>

  <!-- compounding arrows A -> B -> C -->
  <line x1="260" y1="494" x2="306" y2="494" stroke="url(#ltr)" stroke-width="3.5" marker-end="url(#atr)"/>
  <line x1="510" y1="494" x2="556" y2="494" stroke="url(#ltr)" stroke-width="3.5" marker-end="url(#atr)"/>

  <!-- each project reads from + writes to the KB (both ways) -->
  <path d="M160 446 C 160 400, 240 372, 296 350" fill="none" stroke="#a78bfa" stroke-width="2.5" opacity=".8" marker-end="url(#atrp)"/>
  <path d="M524 348 C 580 372, 660 404, 660 446" fill="none" stroke="#a78bfa" stroke-width="2.5" opacity=".8" marker-end="url(#atr)"/>
  <line x1="410" y1="446" x2="410" y2="368" stroke="#a78bfa" stroke-width="2.5" opacity=".8" marker-end="url(#atrp)"/>
  <line x1="410" y1="366" x2="410" y2="446" stroke="rgba(0,212,255,.55)" stroke-width="2.5" opacity=".8" marker-end="url(#atr)"/>

  <text x="190" y="404" text-anchor="middle" fill="rgba(240,244,255,.45)" font-size="12">write</text>
  <text x="628" y="404" text-anchor="middle" fill="rgba(240,244,255,.45)" font-size="12">read</text>

  <text x="410" y="588" text-anchor="middle" fill="rgba(240,244,255,.62)" font-size="16">The smarter your notes, the smarter your AI gets.</text>
</svg>
